# xmcd
#
# Track frame offsets: 
#        150
#        14520
#        37929
#        59442
#        78947
#        106328
#        129158
#        140378
#        162532
#        178695
#        197389
#        217130
#        235037
#        253581
#        269701
#        287771
#        302572
#        318391
#        328220
#
# Disc length: 4518 seconds
#
# Revision: 0
# Processed by: cddbd v1.4PL0 Copyright (c) Steve Scherf et al.
# Submitted via: ExactAudioCopy v0.95a3
#
DISCID=1311a413
DTITLE=Bluehand - 
DYEAR=1993
DGENRE=Blues
TTITLE0=Slice-O-Pie
TTITLE1=Lake Five
TTITLE2=Wah!
TTITLE3=Bad Dog
TTITLE4=Age Of Unreason
TTITLE5=Heart Of Stone
TTITLE6=Oh Caroline
TTITLE7=Surprise
TTITLE8=Tuna Stomp
TTITLE9=In Your Arms
TTITLE10=Cry A Bloody River
TTITLE11=Lick And A Promise
TTITLE12=Since You Came Along
TTITLE13=Lo La Lady
TTITLE14=Little More Wine
TTITLE15=Don't Turn Around
TTITLE16=The Bottle's Been My Baby
TTITLE17=Pretty As Pretty
TTITLE18=Sweet Little Angel
EXTD=
EXTT0=
EXTT1=
EXTT2=
EXTT3=
EXTT4=
EXTT5=
EXTT6=
EXTT7=
EXTT8=
EXTT9=
EXTT10=
EXTT11=
EXTT12=
EXTT13=
EXTT14=
EXTT15=
EXTT16=
EXTT17=
EXTT18=
PLAYORDER=
